<svg width="1280" height="720" xmlns="http://www.w3.org/2000/svg" xmlns:xlink="http://www.w3.org/1999/xlink" overflow="hidden"><defs><clipPath id="clip0"><rect x="0" y="0" width="1280" height="720"/></clipPath><clipPath id="clip1"><rect x="359" y="385" width="123" height="123"/></clipPath><clipPath id="clip2"><rect x="359" y="385" width="123" height="123"/></clipPath><clipPath id="clip3"><rect x="359" y="385" width="123" height="123"/></clipPath><clipPath id="clip4"><rect x="591" y="385" width="132" height="132"/></clipPath><clipPath id="clip5"><rect x="591" y="385" width="132" height="132"/></clipPath><clipPath id="clip6"><rect x="591" y="385" width="132" height="132"/></clipPath><clipPath id="clip7"><rect x="232" y="235" width="87" height="87"/></clipPath><clipPath id="clip8"><rect x="232" y="235" width="87" height="87"/></clipPath><clipPath id="clip9"><rect x="232" y="235" width="87" height="87"/></clipPath><clipPath id="clip10"><rect x="242" y="532" width="87" height="87"/></clipPath><clipPath id="clip11"><rect x="242" y="532" width="87" height="87"/></clipPath><clipPath id="clip12"><rect x="242" y="532" width="87" height="87"/></clipPath><clipPath id="clip13"><rect x="824" y="390" width="123" height="122"/></clipPath><clipPath id="clip14"><rect x="824" y="390" width="123" height="122"/></clipPath><clipPath id="clip15"><rect x="824" y="390" width="123" height="122"/></clipPath></defs><g clip-path="url(#clip0)"><rect x="0" y="0" width="1280" height="720" fill="#FFFFFF"/><rect x="12.5001" y="203.5" width="1237" height="477" stroke="#D9D9D9" stroke-width="1.33333" stroke-miterlimit="8" fill="#7F7F7F"/><rect x="329.5" y="203.5" width="641" height="323" stroke="#D9D9D9" stroke-width="1.33333" stroke-miterlimit="8" fill="#D9D9D9"/><text font-family="Calibri,Calibri_MSFontService,sans-serif" font-weight="400" font-size="24" transform="translate(360.869 365)">Order robot </text><path d="M367.5 287C367.5 259.11 390.334 236.5 418.5 236.5 446.667 236.5 469.5 259.11 469.5 287 469.5 314.89 446.667 337.5 418.5 337.5 390.334 337.5 367.5 314.89 367.5 287Z" stroke="#131023" stroke-width="1.33333" stroke-miterlimit="8" fill="#161527" fill-rule="evenodd"/><text fill="#FFFFFF" font-family="Calibri,Calibri_MSFontService,sans-serif" font-weight="700" font-size="48" transform="translate(405.806 303)">1<tspan fill="#000000" font-weight="400" font-size="24" x="158.774" y="63">Work  robotically </tspan></text><path d="M11.0273-17.5898C11.5508-17.5898 12.0703-17.5195 12.5859-17.3789 13.1016-17.2383 13.5957-17.041 14.0684-16.7871 14.541-16.5332 14.9824-16.2324 15.3926-15.8848 15.8027-15.5371 16.1641-15.1562 16.4766-14.7422 16.7891-15.1641 17.1504-15.5488 17.5605-15.8965 17.9707-16.2441 18.4102-16.543 18.8789-16.793 19.3477-17.043 19.8398-17.2383 20.3555-17.3789 20.8711-17.5195 21.3945-17.5898 21.9258-17.5898 22.4414-17.5898 22.9492-17.5234 23.4492-17.3906 23.9492-17.2578 24.4336-17.0781 24.9023-16.8516 25.9805-16.3125 26.8047-15.5879 27.375-14.6777 27.9453-13.7676 28.2305-12.7109 28.2305-11.5078 28.2305-10.8281 28.1445-10.1543 27.9727-9.48633 27.8008-8.81836 27.5664-8.17383 27.2695-7.55273 26.9727-6.93164 26.6211-6.33984 26.2148-5.77734 25.8086-5.21484 25.3711-4.69531 24.9023-4.21875 24.1523-3.45312 23.3965-2.70117 22.6348-1.96289 21.873-1.22461 21.0977-0.488281 20.3086 0.246094 20.0977 0.441406 19.8711 0.648438 19.6289 0.867188 19.3867 1.08594 19.1406 1.30469 18.8906 1.52344 18.6406 1.74219 18.3906 1.95312 18.1406 2.15625 17.8906 2.35938 17.6484 2.54297 17.4141 2.70703 17.2656 2.80859 17.125 2.88477 16.9922 2.93555 16.8594 2.98633 16.7031 3.01172 16.5234 3.01172 16.3281 3.01172 16.1602 2.98242 16.0195 2.92383 15.8789 2.86523 15.7305 2.78125 15.5742 2.67188 15.3633 2.51562 15.1348 2.33594 14.8887 2.13281 14.6426 1.92969 14.3945 1.7168 14.1445 1.49414 13.8945 1.27148 13.6504 1.05078 13.4121 0.832031 13.1738 0.613281 12.9531 0.414062 12.75 0.234375 11.9453-0.492187 11.1504-1.22266 10.3652-1.95703 9.58008-2.69141 8.80859-3.44531 8.05078-4.21875 7.58203-4.69531 7.14453-5.21484 6.73828-5.77734 6.33203-6.33984 5.98047-6.93164 5.68359-7.55273 5.38672-8.17383 5.15234-8.81836 4.98047-9.48633 4.80859-10.1543 4.72266-10.8281 4.72266-11.5078 4.72266-12.7187 5.00781-13.7773 5.57812-14.6836 6.14844-15.5898 6.97266-16.3125 8.05078-16.8516 8.51953-17.0781 9.00195-17.2578 9.49805-17.3906 9.99414-17.5234 10.5039-17.5898 11.0273-17.5898Z" fill="#F8312F" transform="translate(737.579 366)"/><path d="M16.4766-14.7422C16.7891-15.1562 17.1504-15.5371 17.5605-15.8848 17.9707-16.2324 18.4102-16.5312 18.8789-16.7812 19.3477-17.0312 19.8398-17.2266 20.3555-17.3672 20.8711-17.5078 21.3945-17.5781 21.9258-17.5781 22.3945-17.5781 22.8535-17.5254 23.3027-17.4199 23.752-17.3145 24.1875-17.168 24.6094-16.9805 24.4531-16.9961 24.3027-17.0078 24.1582-17.0156 24.0137-17.0234 23.8633-17.0273 23.707-17.0273 22.9023-17.0273 22.1367-16.9082 21.4102-16.6699 20.6836-16.4316 20.0117-16.0977 19.3945-15.668 18.7773-15.2383 18.2207-14.7266 17.7246-14.1328 17.2285-13.5391 16.8125-12.8867 16.4766-12.1758ZM13.0664-17.2383C12.6133-17.1992 12.1699-17.1191 11.7363-16.998 11.3027-16.877 10.8789-16.7266 10.4648-16.5469 9.91016-16.2969 9.40625-16 8.95312-15.6562 8.5-15.3125 8.11328-14.9199 7.79297-14.4785 7.47266-14.0371 7.22461-13.5488 7.04883-13.0137 6.87305-12.4785 6.78516-11.8984 6.78516-11.2734 6.78516-10.5781 6.88477-9.89844 7.08398-9.23438 7.2832-8.57031 7.55078-7.93359 7.88672-7.32422 8.22266-6.71484 8.61328-6.13867 9.05859-5.5957 9.50391-5.05273 9.97266-4.55469 10.4648-4.10156 11.6836-2.99219 12.9277-1.91602 14.1973-0.873047 15.4668 0.169922 16.7578 1.1875 18.0703 2.17969 17.9531 2.27344 17.8379 2.37109 17.7246 2.47266 17.6113 2.57422 17.4922 2.66406 17.3672 2.74219 17.2422 2.82031 17.1113 2.88477 16.9746 2.93555 16.8379 2.98633 16.6875 3.01172 16.5234 3.01172 16.3281 3.01172 16.1602 2.98242 16.0195 2.92383 15.8789 2.86523 15.7305 2.78125 15.5742 2.67188 15.3711 2.53125 15.1523 2.36133 14.918 2.16211 14.6836 1.96289 14.4473 1.75781 14.209 1.54688 13.9707 1.33594 13.7363 1.12695 13.5059 0.919922 13.2754 0.712891 13.0664 0.523438 12.8789 0.351562 12.0508-0.398437 11.2344-1.15039 10.4297-1.9043 9.625-2.6582 8.83203-3.42969 8.05078-4.21875 7.58203-4.69531 7.14453-5.21484 6.73828-5.77734 6.33203-6.33984 5.98047-6.93164 5.68359-7.55273 5.38672-8.17383 5.15234-8.81836 4.98047-9.48633 4.80859-10.1543 4.72266-10.8281 4.72266-11.5078 4.72266-12.7109 5.00781-13.7676 5.57812-14.6777 6.14844-15.5879 6.97266-16.3125 8.05078-16.8516 8.51953-17.0781 9.00195-17.2578 9.49805-17.3906 9.99414-17.5234 10.5-17.5898 11.0156-17.5898 11.3672-17.5898 11.7148-17.5586 12.0586-17.4961 12.4023-17.4336 12.7383-17.3477 13.0664-17.2383Z" fill="#CA0B4A" transform="translate(737.579 366)"/><path d="M25.6641-12.8672C25.6641-12.5312 25.6133-12.168 25.5117-11.7773 25.4102-11.3867 25.2676-10.9961 25.084-10.6055 24.9004-10.2148 24.6816-9.83789 24.4277-9.47461 24.1738-9.11133 23.8945-8.79102 23.5898-8.51367 23.2852-8.23633 22.959-8.01562 22.6113-7.85156 22.2637-7.6875 21.9062-7.60547 21.5391-7.60547 21.2422-7.60547 20.9883-7.66602 20.7773-7.78711 20.5664-7.9082 20.3945-8.06836 20.2617-8.26758 20.1289-8.4668 20.0332-8.69336 19.9746-8.94727 19.916-9.20117 19.8867-9.45703 19.8867-9.71484 19.8867-10.0508 19.9375-10.416 20.0391-10.8105 20.1406-11.2051 20.2832-11.5977 20.4668-11.9883 20.6504-12.3789 20.8691-12.7539 21.123-13.1133 21.377-13.4727 21.6562-13.791 21.9609-14.0684 22.2656-14.3457 22.5898-14.5664 22.9336-14.7305 23.2773-14.8945 23.6328-14.9766 24-14.9766 24.2969-14.9766 24.5508-14.9141 24.7617-14.7891 24.9727-14.6641 25.1445-14.502 25.2773-14.3027 25.4102-14.1035 25.5078-13.8789 25.5703-13.6289 25.6328-13.3789 25.6641-13.125 25.6641-12.8672Z" fill="#F37366" transform="translate(737.579 366)"/><text font-family="Calibri,Calibri_MSFontService,sans-serif" font-weight="400" font-size="24" transform="translate(770.579 366)"> <tspan font-size="24" x="63.3983" y="1">Send it back </tspan></text><path d="M831.5 287C831.5 259.11 854.11 236.5 882 236.5 909.89 236.5 932.5 259.11 932.5 287 932.5 314.89 909.89 337.5 882 337.5 854.11 337.5 831.5 314.89 831.5 287Z" stroke="#131023" stroke-width="1.33333" stroke-miterlimit="8" fill="#161527" fill-rule="evenodd"/><text fill="#FFFFFF" font-family="Calibri,Calibri_MSFontService,sans-serif" font-weight="700" font-size="48" transform="translate(868.915 303)">3</text><g clip-path="url(#clip1)"><g clip-path="url(#clip2)"><g clip-path="url(#clip3)"><path d="M397.438 409.984 378.219 421.644 420.5 447.269 439.719 435.609Z" stroke="#131023" stroke-width="1.21481" fill="#161527"/><path d="M462.781 421.644 420.5 396.019 402.306 407.038 444.587 432.663Z" stroke="#131023" stroke-width="1.21481" fill="#161527"/><path d="M378.219 431.894 378.219 472.894 417.938 496.981 417.938 451.753 378.219 427.666Z" stroke="#131023" stroke-width="1.21481" fill="#161527"/><path d="M437.156 458.8 428.188 463.925 428.188 454.956 437.156 449.831 437.156 458.8ZM423.062 451.753 423.062 496.981 462.781 472.894 462.781 427.666 423.062 451.753Z" stroke="#131023" stroke-width="1.21481" fill="#161527"/></g></g></g><path d="M469.5 286.5 831.447 286.5" stroke="#AFABAB" stroke-width="0.333333" stroke-miterlimit="8" fill="none" fill-rule="evenodd"/><path d="M604.5 287C604.5 259.11 627.11 236.5 655 236.5 682.89 236.5 705.5 259.11 705.5 287 705.5 314.89 682.89 337.5 655 337.5 627.11 337.5 604.5 314.89 604.5 287Z" stroke="#131023" stroke-width="1.33333" stroke-miterlimit="8" fill="#161527" fill-rule="evenodd"/><text fill="#FFFFFF" font-family="Calibri,Calibri_MSFontService,sans-serif" font-weight="700" font-size="48" transform="translate(642.628 303)">2</text><path d="M469.5 449.5 1012.53 449.5" stroke="#AFABAB" stroke-width="0.333333" stroke-miterlimit="8" fill="none" fill-rule="evenodd"/><g clip-path="url(#clip4)"><g clip-path="url(#clip5)"><g clip-path="url(#clip6)"><path d="M651.844 412.5 634.656 412.5 663.531 451 634.656 489.5 651.844 489.5 680.719 451 651.844 412.5Z" stroke="#131023" stroke-width="1.21379" fill="#161527"/><path d="M601.656 489.5 618.844 489.5 647.719 451 618.844 412.5 601.656 412.5 630.531 451 601.656 489.5Z" stroke="#131023" stroke-width="1.21379" fill="#161527"/><path d="M684.844 412.5 667.656 412.5 696.531 451 667.656 489.5 684.844 489.5 713.719 451 684.844 412.5Z" stroke="#131023" stroke-width="1.21379" fill="#161527"/></g></g></g><path d="M329.5 196.5C329.5 187.111 330.769 179.5 332.333 179.5L647.167 179.5C648.731 179.5 650 171.889 650 162.5 650 171.889 651.269 179.5 652.833 179.5L967.667 179.5C969.231 179.5 970.5 187.112 970.5 196.501" stroke="#AFABAB" stroke-width="0.333333" stroke-miterlimit="8" fill="none" fill-rule="evenodd"/><text font-family="Calibri,Calibri_MSFontService,sans-serif" font-weight="400" font-size="24" transform="translate(564.579 148)">Customer process</text><path d="M17.5001 198.5C17.5001 188.835 18.8058 181 20.4166 181L168.083 181C169.694 181 171 173.165 171 163.5 171 173.165 172.306 181 173.917 181L321.583 181C323.194 181 324.5 188.835 324.5 198.5" stroke="#AFABAB" stroke-width="0.333333" stroke-miterlimit="8" fill="none" fill-rule="evenodd"/><path d="M975.5 196.484C975.5 188.204 976.619 181.492 977.999 181.492L1104.5 181.492C1105.88 181.492 1107 174.78 1107 166.5 1107 174.78 1108.12 181.492 1109.5 181.492L1236 181.492C1237.38 181.492 1238.5 188.204 1238.5 196.484" stroke="#AFABAB" stroke-width="0.333333" stroke-miterlimit="8" fill="none" fill-rule="evenodd"/><text font-family="Calibri,Calibri_MSFontService,sans-serif" font-weight="400" font-size="24" transform="translate(111.377 148)">Robot owner</text><path d="M126.5 276C126.5 248.11 149.334 225.5 177.5 225.5 205.667 225.5 228.5 248.11 228.5 276 228.5 303.89 205.667 326.5 177.5 326.5 149.334 326.5 126.5 303.89 126.5 276Z" stroke="#131023" stroke-width="1.33333" stroke-miterlimit="8" fill="#161527" fill-rule="evenodd"/><text fill="#FFFFFF" font-family="Calibri,Calibri_MSFontService,sans-serif" font-weight="700" font-size="48" transform="translate(162.404 292)">A</text><path d="M126.5 562C126.5 534.11 149.334 511.5 177.5 511.5 205.667 511.5 228.5 534.11 228.5 562 228.5 589.89 205.667 612.5 177.5 612.5 149.334 612.5 126.5 589.89 126.5 562Z" stroke="#131023" stroke-width="1.33333" stroke-miterlimit="8" fill="#161527" fill-rule="evenodd"/><text fill="#FFFFFF" font-family="Calibri,Calibri_MSFontService,sans-serif" font-weight="700" font-size="48" transform="translate(163.571 578)">B</text><g clip-path="url(#clip7)"><g clip-path="url(#clip8)"><g clip-path="url(#clip9)"><path d="M298.156 309.312 252.844 309.312 252.844 253.125 262.812 253.125 262.812 258.562 288.188 258.562 288.188 253.125 298.156 253.125ZM275.5 245.875C277.002 245.875 278.219 247.092 278.219 248.594 278.219 250.095 277.002 251.312 275.5 251.312 273.998 251.312 272.781 250.095 272.781 248.594 272.757 247.117 273.934 245.9 275.41 245.875 275.44 245.874 275.47 245.874 275.5 245.875ZM299.969 247.688 284.562 247.688 284.562 245.875C284.562 243.873 282.939 242.25 280.938 242.25L270.062 242.25C268.061 242.25 266.438 243.873 266.438 245.875L266.438 247.688 251.031 247.688C249.029 247.688 247.406 249.311 247.406 251.312L247.406 311.125C247.406 313.127 249.029 314.75 251.031 314.75L299.969 314.75C301.971 314.75 303.594 313.127 303.594 311.125L303.594 251.312C303.594 249.311 301.971 247.688 299.969 247.688Z" stroke="#131023" stroke-width="1.20833" fill="#161527"/><path d="M277.312 265.812 292.719 265.812 292.719 269.438 277.312 269.438Z" stroke="#131023" stroke-width="1.20833" fill="#161527"/><path d="M277.312 276.688 292.719 276.688 292.719 280.312 277.312 280.312Z" stroke="#131023" stroke-width="1.20833" fill="#161527"/><path d="M277.312 287.562 292.719 287.562 292.719 291.188 277.312 291.188Z" stroke="#131023" stroke-width="1.20833" fill="#161527"/><path d="M277.312 298.438 292.719 298.438 292.719 302.062 277.312 302.062Z" stroke="#131023" stroke-width="1.20833" fill="#161527"/><path d="M258.922 267.444 260.819 265.547 263.175 267.903 269.156 261.922 271.053 263.819 263.175 271.697 258.922 267.444Z" stroke="#131023" stroke-width="1.20833" fill="#161527"/><path d="M258.922 278.319 260.819 276.422 263.175 278.778 269.156 272.797 271.053 274.694 263.175 282.572 258.922 278.319Z" stroke="#131023" stroke-width="1.20833" fill="#161527"/><path d="M258.922 289.194 260.819 287.297 263.175 289.653 269.156 283.672 271.053 285.569 263.175 293.447 258.922 289.194Z" stroke="#131023" stroke-width="1.20833" fill="#161527"/><path d="M258.922 300.069 260.819 298.172 263.175 300.528 269.156 294.547 271.053 296.444 263.175 304.322 258.922 300.069Z" stroke="#131023" stroke-width="1.20833" fill="#161527"/></g></g></g><text font-family="Calibri,Calibri_MSFontService,sans-serif" font-weight="400" font-size="24" transform="translate(30.7166 259)">List your <tspan font-size="24" x="0" y="29">robot on</tspan><tspan font-size="24" x="0" y="58">R|Robot</tspan></text><path d="M177.667 326.5 177.667 500.99 177.333 500.99 177.333 326.5ZM181.5 499.656 177.5 507.656 173.5 499.656Z" fill="#AFABAB"/><text font-family="Calibri,Calibri_MSFontService,sans-serif" font-weight="400" font-size="24" transform="translate(20.2656 518)">Accept the <tspan font-size="24" x="0" y="29">customer </tspan><tspan font-size="24" x="0" y="58">and ship it </tspan><tspan font-size="24" x="0" y="87">to the </tspan><tspan font-size="24" x="0" y="116">customer </tspan></text><g clip-path="url(#clip10)"><g clip-path="url(#clip11)"><g clip-path="url(#clip12)"><path d="M320.028 546.319 273.628 590.181 251.334 567.344 243.631 574.684 273.266 605.134 281.059 597.884 327.369 553.931Z" stroke="#131023" stroke-width="1.20833" fill="#161527"/></g></g></g><path d="M213.333 525.984 213.333 446.333 353.471 446.333 353.471 446.667 213.5 446.667 213.667 446.5 213.667 525.984ZM352.138 442.5 360.138 446.5 352.138 450.5Z" fill="#AFABAB"/><path d="M1042.5 286C1042.5 258.11 1065.11 235.5 1093 235.5 1120.89 235.5 1143.5 258.11 1143.5 286 1143.5 313.89 1120.89 336.5 1093 336.5 1065.11 336.5 1042.5 313.89 1042.5 286Z" stroke="#131023" stroke-width="1.33333" stroke-miterlimit="8" fill="#161527" fill-rule="evenodd"/><text fill="#FFFFFF" font-family="Calibri,Calibri_MSFontService,sans-serif" font-weight="700" font-size="48" transform="translate(1079.47 302)">C</text><path d="M1042.5 559C1042.5 531.11 1065.11 508.5 1093 508.5 1120.89 508.5 1143.5 531.11 1143.5 559 1143.5 586.89 1120.89 609.5 1093 609.5 1065.11 609.5 1042.5 586.89 1042.5 559Z" stroke="#131023" stroke-width="1.33333" stroke-miterlimit="8" fill="#161527" fill-rule="evenodd"/><text fill="#FFFFFF" font-family="Calibri,Calibri_MSFontService,sans-serif" font-weight="700" font-size="48" transform="translate(1076.97 574)">D</text><path d="M1012.33 449.243 1012.33 286.333 1035.8 286.333 1035.8 286.667 1012.5 286.667 1012.67 286.5 1012.67 449.243ZM1034.47 282.5 1042.47 286.5 1034.47 290.5Z" fill="#AFABAB"/><path d="M1092.67 340.5 1092.67 501.048 1092.33 501.048 1092.33 340.5ZM1096.5 499.715 1092.5 507.715 1088.5 499.715Z" fill="#AFABAB"/><text font-family="Calibri,Calibri_MSFontService,sans-serif" font-weight="400" font-size="24" transform="translate(1145.86 540)">Get the <tspan font-size="24" x="0" y="29">money for </tspan><tspan font-size="24" x="0" y="58">robot </tspan><tspan font-size="24" x="0" y="87">usage </tspan><tspan font-size="24" x="2.58594" y="-266">Receive </tspan><tspan font-size="24" x="2.58594" y="-237">the robot </tspan><tspan font-size="24" x="2.58594" y="-208">back </tspan></text><g clip-path="url(#clip13)"><g clip-path="url(#clip14)"><g clip-path="url(#clip15)"><path d="M38.125 24.7812 19.0625 36.3458 61 61.7625 80.0625 50.1979Z" stroke="#131023" stroke-width="1.20494" fill="#161527" transform="matrix(1.0082 0 0 1 824 390)"/><path d="M102.938 36.3458 61 10.9292 42.9542 21.8583 84.8917 47.275Z" stroke="#131023" stroke-width="1.20494" fill="#161527" transform="matrix(1.0082 0 0 1 824 390)"/><path d="M19.0625 46.5125 19.0625 87.1792 58.4583 111.071 58.4583 66.2104 19.0625 42.3187Z" stroke="#131023" stroke-width="1.20494" fill="#161527" transform="matrix(1.0082 0 0 1 824 390)"/><path d="M77.5208 73.2 68.625 78.2833 68.625 69.3875 77.5208 64.3042 77.5208 73.2ZM63.5417 66.2104 63.5417 111.071 102.938 87.1792 102.938 42.3187 63.5417 66.2104Z" stroke="#131023" stroke-width="1.20494" fill="#161527" transform="matrix(1.0082 0 0 1 824 390)"/></g></g></g><text font-family="Calibri,Calibri_MSFontService,sans-serif" font-weight="400" font-size="24" transform="translate(1050.72 150)">Robot owner</text></g></svg>